<svg width="94" height="152" viewBox="0 0 94 152" fill="none" xmlns="http://www.w3.org/2000/svg">
<path d="M79.4805 100.457C79.6445 100.814 79.7857 101.174 79.9043 101.538V108.47C78.8882 112.088 76.5644 115.227 74.627 116.673L74.6035 116.69L74.5791 116.705L36.1475 138.973L36.1191 138.99L36.0889 139.002C33.8446 139.934 29.0485 141.288 23.4824 141.449C17.9149 141.61 11.522 140.577 6.14453 136.672C3.45476 134.719 1.79021 132.586 0.90918 130.422C0.746051 130.022 0.610408 129.621 0.5 129.221V123.523C0.860318 122.151 1.45367 120.865 2.18555 119.721L79.2832 100.506L79.4805 100.457Z" fill="url(#paint0_linear_620_870)"/>
<path d="M79.4805 100.457L79.9349 100.248L79.7614 99.8699L79.3581 99.9718L79.4805 100.457ZM79.9043 101.538H80.4043V101.458L80.3796 101.382L79.9043 101.538ZM79.9043 108.47L80.3857 108.605L80.4043 108.539V108.47H79.9043ZM74.627 116.673L74.9161 117.081L74.9261 117.074L74.627 116.673ZM74.6035 116.69L74.8608 117.119L74.877 117.109L74.8925 117.098L74.6035 116.69ZM74.5791 116.705L74.8298 117.137L74.8363 117.133L74.5791 116.705ZM36.1475 138.973L35.8968 138.541L35.8946 138.542L36.1475 138.973ZM36.1191 138.99L36.3125 139.451L36.3432 139.438L36.372 139.421L36.1191 138.99ZM36.0889 139.002L36.2805 139.464L36.2822 139.464L36.0889 139.002ZM23.4824 141.449L23.4969 141.949H23.4969L23.4824 141.449ZM6.14453 136.672L5.85074 137.077L5.85075 137.077L6.14453 136.672ZM0.90918 130.422L0.446088 130.611L0.446098 130.611L0.90918 130.422ZM0.5 129.221H0V129.289L0.0180491 129.354L0.5 129.221ZM0.5 123.523L0.0163907 123.396L0 123.458V123.523H0.5ZM2.18555 119.721L2.06463 119.236L1.8716 119.284L1.76438 119.452L2.18555 119.721ZM79.2832 100.506L79.4041 100.992L79.4056 100.991L79.2832 100.506ZM79.4805 100.457L79.026 100.665C79.1823 101.006 79.3165 101.348 79.429 101.693L79.9043 101.538L80.3796 101.382C80.255 101.001 80.1068 100.623 79.9349 100.248L79.4805 100.457ZM79.9043 101.538H79.4043V108.47H79.9043H80.4043V101.538H79.9043ZM79.9043 108.47L79.4229 108.335C78.4345 111.855 76.1707 114.897 74.3278 116.273L74.627 116.673L74.9261 117.074C76.958 115.557 79.3419 112.322 80.3857 108.605L79.9043 108.47ZM74.627 116.673L74.3379 116.265L74.3145 116.282L74.6035 116.69L74.8925 117.098L74.916 117.081L74.627 116.673ZM74.6035 116.69L74.3463 116.261L74.3219 116.276L74.5791 116.705L74.8363 117.133L74.8608 117.119L74.6035 116.69ZM74.5791 116.705L74.3284 116.272L35.8968 138.541L36.1475 138.973L36.3981 139.406L74.8298 117.137L74.5791 116.705ZM36.1475 138.973L35.8946 138.542L35.8663 138.558L36.1191 138.99L36.372 139.421L36.4003 139.404L36.1475 138.973ZM36.1191 138.99L35.9258 138.529L35.8955 138.541L36.0889 139.002L36.2822 139.464L36.3125 139.451L36.1191 138.99ZM36.0889 139.002L35.8972 138.541C33.7068 139.449 28.9706 140.79 23.468 140.949L23.4824 141.449L23.4969 141.949C29.1265 141.786 33.9825 140.418 36.2805 139.464L36.0889 139.002ZM23.4824 141.449L23.468 140.949C17.9654 141.108 11.6954 140.085 6.43831 136.268L6.14453 136.672L5.85075 137.077C11.3485 141.069 17.8644 142.111 23.4969 141.949L23.4824 141.449ZM6.14453 136.672L6.43832 136.268C3.81003 134.359 2.21212 132.296 1.37226 130.234L0.90918 130.422L0.446098 130.611C1.3683 132.876 3.09948 135.079 5.85074 137.077L6.14453 136.672ZM0.90918 130.422L1.37227 130.234C1.21657 129.851 1.0872 129.469 0.981951 129.088L0.5 129.221L0.0180491 129.354C0.133613 129.773 0.275534 130.192 0.446088 130.611L0.90918 130.422ZM0.5 129.221H1V123.523H0.5H0V129.221H0.5ZM0.5 123.523L0.983609 123.65C1.32931 122.333 1.89991 121.095 2.60672 119.991L2.18555 119.721L1.76438 119.452C1.00744 120.635 0.391325 121.968 0.0163907 123.396L0.5 123.523ZM2.18555 119.721L2.30646 120.206L79.4041 100.992L79.2832 100.506L79.1623 100.021L2.06463 119.236L2.18555 119.721ZM79.2832 100.506L79.4056 100.991L79.6029 100.941L79.4805 100.457L79.3581 99.9718L79.1608 100.022L79.2832 100.506Z" fill="#1C1C1C"/>
<path d="M79.4805 94.2458C79.6445 94.6034 79.7857 94.9638 79.9043 95.3269V102.26C78.8882 105.878 76.5644 109.016 74.627 110.463L74.6035 110.479L74.5791 110.494L36.1475 132.762L36.1191 132.779L36.0889 132.792C33.8446 133.723 29.0485 135.077 23.4824 135.238C17.9149 135.399 11.522 134.366 6.14453 130.462C3.45476 128.508 1.79021 126.375 0.90918 124.212C0.746051 123.811 0.610408 123.41 0.5 123.01V117.312C0.860318 115.94 1.45367 114.654 2.18555 113.51L79.2832 94.2957L79.4805 94.2458Z" fill="url(#paint1_linear_620_870)"/>
<path d="M79.4805 94.2458L79.9349 94.0373L79.7614 93.6592L79.3581 93.7611L79.4805 94.2458ZM79.9043 95.3269H80.4043V95.2473L80.3796 95.1717L79.9043 95.3269ZM79.9043 102.26L80.3857 102.395L80.4043 102.328V102.26H79.9043ZM74.627 110.463L74.9161 110.871L74.9261 110.863L74.627 110.463ZM74.6035 110.479L74.8608 110.908L74.877 110.898L74.8925 110.887L74.6035 110.479ZM74.5791 110.494L74.8298 110.927L74.8363 110.923L74.5791 110.494ZM36.1475 132.762L35.8968 132.33L35.8946 132.331L36.1475 132.762ZM36.1191 132.779L36.3125 133.24L36.3432 133.227L36.372 133.21L36.1191 132.779ZM36.0889 132.792L36.2805 133.254L36.2822 133.253L36.0889 132.792ZM23.4824 135.238L23.4969 135.738H23.4969L23.4824 135.238ZM6.14453 130.462L5.85074 130.866L5.85075 130.866L6.14453 130.462ZM0.90918 124.212L0.446088 124.4L0.446098 124.4L0.90918 124.212ZM0.5 123.01H0V123.078L0.018049 123.144L0.5 123.01ZM0.5 117.312L0.0163907 117.185L0 117.248V117.312H0.5ZM2.18555 113.51L2.06463 113.025L1.8716 113.073L1.76438 113.241L2.18555 113.51ZM79.2832 94.2957L79.4041 94.7808L79.4056 94.7804L79.2832 94.2957ZM79.4805 94.2458L79.026 94.4544C79.1823 94.795 79.3165 95.1376 79.429 95.4821L79.9043 95.3269L80.3796 95.1717C80.255 94.79 80.1068 94.4118 79.9349 94.0373L79.4805 94.2458ZM79.9043 95.3269H79.4043V102.26H79.9043H80.4043V95.3269H79.9043ZM79.9043 102.26L79.4229 102.124C78.4345 105.644 76.1707 108.686 74.3278 110.062L74.627 110.463L74.9261 110.863C76.958 109.346 79.3419 106.111 80.3857 102.395L79.9043 102.26ZM74.627 110.463L74.3379 110.055L74.3145 110.071L74.6035 110.479L74.8925 110.887L74.916 110.871L74.627 110.463ZM74.6035 110.479L74.3463 110.051L74.3219 110.065L74.5791 110.494L74.8363 110.923L74.8608 110.908L74.6035 110.479ZM74.5791 110.494L74.3284 110.061L35.8968 132.33L36.1475 132.762L36.3981 133.195L74.8298 110.927L74.5791 110.494ZM36.1475 132.762L35.8946 132.331L35.8663 132.348L36.1191 132.779L36.372 133.21L36.4003 133.194L36.1475 132.762ZM36.1191 132.779L35.9258 132.318L35.8955 132.331L36.0889 132.792L36.2822 133.253L36.3125 133.24L36.1191 132.779ZM36.0889 132.792L35.8972 132.33C33.7068 133.239 28.9706 134.579 23.468 134.738L23.4824 135.238L23.4969 135.738C29.1265 135.575 33.9825 134.207 36.2805 133.254L36.0889 132.792ZM23.4824 135.238L23.468 134.738C17.9654 134.897 11.6954 133.874 6.43831 130.057L6.14453 130.462L5.85075 130.866C11.3485 134.858 17.8644 135.901 23.4969 135.738L23.4824 135.238ZM6.14453 130.462L6.43832 130.057C3.81003 128.149 2.21212 126.086 1.37226 124.023L0.90918 124.212L0.446098 124.4C1.3683 126.665 3.09949 128.868 5.85074 130.866L6.14453 130.462ZM0.90918 124.212L1.37227 124.023C1.21657 123.641 1.0872 123.258 0.981951 122.877L0.5 123.01L0.018049 123.144C0.133613 123.562 0.275534 123.981 0.446088 124.4L0.90918 124.212ZM0.5 123.01H1V117.312H0.5H0V123.01H0.5ZM0.5 117.312L0.983609 117.439C1.32931 116.123 1.89991 114.885 2.60672 113.78L2.18555 113.51L1.76438 113.241C1.00744 114.424 0.391325 115.757 0.0163907 117.185L0.5 117.312ZM2.18555 113.51L2.30646 113.996L79.4041 94.7808L79.2832 94.2957L79.1623 93.8105L2.06463 113.025L2.18555 113.51ZM79.2832 94.2957L79.4056 94.7804L79.6029 94.7306L79.4805 94.2458L79.3581 93.7611L79.1608 93.8109L79.2832 94.2957Z" fill="#1C1C1C"/>
<path d="M74.3278 101.42L35.8967 123.688C31.5157 125.505 16.9528 129.05 6.43843 121.415C-4.0759 113.781 3.26601 106.419 8.25125 103.692L20.941 97.7842C33.0264 90.6645 60.1884 77.9702 72.153 84.1507C84.1176 90.3312 78.5881 98.2386 74.3278 101.42Z" fill="#1C1C1C" stroke="#1C1C1C" stroke-linecap="round"/>
<path d="M8.25122 112.326V63.7004L60.3697 36.8879L72.6062 45.068C72.4551 56.8837 72.2436 82.0601 72.6062 88.2406C72.9687 94.4211 69.4337 98.087 67.6209 99.1474L36.8031 116.871C18.3123 124.142 10.064 116.871 8.25122 112.326Z" fill="url(#paint2_linear_620_870)" stroke="#1C1C1C" stroke-linecap="round"/>
<path d="M45.4139 35.979L13.6897 54.1569C10.4266 56.0267 8.70442 58.5716 8.25122 59.6103C8.97635 72.6985 25.7751 71.426 34.0838 69.1538L67.6209 49.6125C71.2466 47.7947 72.153 45.8254 72.153 45.068C71.0653 31.2527 53.8737 33.2523 45.4139 35.979Z" fill="url(#paint3_linear_620_870)" stroke="#1C1C1C" stroke-linecap="round"/>
<path d="M42.6946 98.2385C45.5951 90.9673 40.8818 85.211 38.1626 83.2417L32.7241 85.9684L34.0837 102.783L36.3498 102.329L42.6946 98.2385Z" fill="url(#paint4_linear_620_870)" stroke="#1C1C1C" stroke-linecap="round"/>
<path d="M38.1626 95.0574C38.8877 101.601 34.8391 102.934 32.7241 102.783V94.6029V86.4229C34.2348 87.1803 37.4374 89.9676 38.1626 95.0574Z" fill="#1C1C1C" stroke="#1C1C1C" stroke-linecap="round"/>
<ellipse cx="1.34393" cy="1.64578" rx="1.34393" ry="1.64578" transform="matrix(0.988329 0.152333 -0.151519 0.988454 39.5676 91.4219)" fill="#1C1C1C"/>
<path d="M55.4559 89.7115C58.1136 83.0492 53.7949 77.7748 51.3034 75.9705L46.3203 78.4688L47.5661 93.8755L49.6424 93.4591L55.4559 89.7115Z" fill="url(#paint5_linear_620_870)" stroke="#1C1C1C" stroke-linecap="round"/>
<path d="M51.3034 86.7968C51.9678 92.7929 48.2582 94.0143 46.3203 93.8755V86.3804V78.8853C47.7045 79.5792 50.639 82.1331 51.3034 86.7968Z" fill="#1C1C1C" stroke="#1C1C1C" stroke-linecap="round"/>
<ellipse cx="1.2314" cy="1.50798" rx="1.2314" ry="1.50798" transform="matrix(0.988329 0.152333 -0.151519 0.988454 52.5908 83.4656)" fill="#1C1C1C"/>
<path d="M69.4235 82.09C72.1892 75.1568 67.695 69.668 65.1021 67.7903L59.9165 70.3902L61.2129 86.4232L63.3736 85.9899L69.4235 82.09Z" fill="url(#paint6_linear_620_870)" stroke="#1C1C1C" stroke-linecap="round"/>
<path d="M65.1021 79.0566C65.7936 85.2965 61.9331 86.5676 59.9165 86.4231V78.6233V70.8235C61.357 71.5457 64.4107 74.2034 65.1021 79.0566Z" fill="#1C1C1C" stroke="#1C1C1C" stroke-linecap="round"/>
<ellipse cx="1.28145" cy="1.56928" rx="1.28145" ry="1.56928" transform="matrix(0.988329 0.152333 -0.151519 0.988454 66.4419 75.5901)" fill="#1C1C1C"/>
<path d="M46.7734 132.776L56.2907 138.684L49.9459 142.358L60.8228 148.655M54.9311 128.232L68.5272 136.103L74.8721 132.43L87.1086 139.514M64.9016 122.779L71.6997 126.714L78.4977 122.779L89.3746 129.141" stroke="#1C1C1C" stroke-linecap="round"/>
<path d="M60.8223 146.365C61.6584 146.365 62.4384 146.591 63.0234 146.982C63.6049 147.37 64.0418 147.962 64.042 148.682C64.042 149.402 63.605 149.994 63.0234 150.383C62.4384 150.774 61.6584 151 60.8223 151C59.9863 151 59.207 150.774 58.6221 150.383C58.0405 149.994 57.6035 149.402 57.6035 148.682C57.6037 147.962 58.0406 147.37 58.6221 146.982C59.207 146.591 59.9863 146.365 60.8223 146.365Z" fill="url(#paint7_linear_620_870)" stroke="#1C1C1C"/>
<path d="M87.1082 137.275C87.9443 137.275 88.7243 137.501 89.3093 137.893C89.8908 138.281 90.3277 138.873 90.3279 139.593C90.3279 140.313 89.8909 140.905 89.3093 141.294C88.7243 141.685 87.9443 141.911 87.1082 141.911C86.2722 141.911 85.4929 141.685 84.908 141.294C84.3264 140.905 83.8894 140.313 83.8894 139.593C83.8896 138.873 84.3265 138.281 84.908 137.893C85.4929 137.502 86.2722 137.275 87.1082 137.275Z" fill="url(#paint8_linear_620_870)" stroke="#1C1C1C"/>
<path d="M89.8274 127.278C90.6635 127.278 91.4435 127.504 92.0286 127.895C92.61 128.284 93.047 128.875 93.0471 129.595C93.0471 130.315 92.6101 130.907 92.0286 131.296C91.4435 131.687 90.6635 131.913 89.8274 131.913C88.9915 131.913 88.2121 131.687 87.6272 131.296C87.0456 130.907 86.6086 130.315 86.6086 129.595C86.6088 128.875 87.0458 128.284 87.6272 127.895C88.2121 127.504 88.9915 127.278 89.8274 127.278Z" fill="url(#paint9_linear_620_870)" stroke="#1C1C1C"/>
<ellipse cx="23.66" cy="61.428" rx="9.06408" ry="5.45338" fill="#1C1C1C"/>
<ellipse cx="57.1971" cy="42.3413" rx="9.06408" ry="5.45338" fill="#1C1C1C"/>
<path d="M18.6748 35.07V65.0636C21.9379 66.9527 26.3793 65.8508 28.1921 65.0636V35.07C28.1921 31.0709 30.0049 27.0414 30.9113 25.5266C42.6946 2.8042 50.8523 9.62093 52.2119 15.5288V45.9768C55.8375 46.951 60.0674 46.3827 61.7292 45.9768V24.6177C62.1824 19.1643 62.6356 -4.467 41.335 1.44083C23.5694 9.80268 18.8259 27.3444 18.6748 35.07Z" fill="url(#paint10_linear_620_870)" stroke="#1C1C1C" stroke-linecap="round"/>
<defs>
<linearGradient id="paint0_linear_620_870" x1="40.2021" y1="100.457" x2="40.2021" y2="141.465" gradientUnits="userSpaceOnUse">
<stop stop-color="#9BA5B1"/>
<stop offset="0.567331" stop-color="#4A515A"/>
<stop offset="1" stop-color="#202327"/>
</linearGradient>
<linearGradient id="paint1_linear_620_870" x1="40.2021" y1="94.2458" x2="40.2021" y2="135.254" gradientUnits="userSpaceOnUse">
<stop stop-color="#9BA5B1"/>
<stop offset="0.567331" stop-color="#4A515A"/>
<stop offset="1" stop-color="#202327"/>
</linearGradient>
<linearGradient id="paint2_linear_620_870" x1="40.4416" y1="36.8879" x2="40.4416" y2="119.956" gradientUnits="userSpaceOnUse">
<stop stop-color="#9BA5B1"/>
<stop offset="0.567331" stop-color="#4A515A"/>
<stop offset="1" stop-color="#202327"/>
</linearGradient>
<linearGradient id="paint3_linear_620_870" x1="40.2021" y1="34.0134" x2="40.2021" y2="70.5999" gradientUnits="userSpaceOnUse">
<stop stop-color="#9BA5B1"/>
<stop offset="0.567331" stop-color="#4A515A"/>
<stop offset="1" stop-color="#202327"/>
</linearGradient>
<linearGradient id="paint4_linear_620_870" x1="38.1649" y1="83.2417" x2="38.1649" y2="102.783" gradientUnits="userSpaceOnUse">
<stop stop-color="#9BA5B1"/>
<stop offset="0.567331" stop-color="#4A515A"/>
<stop offset="1" stop-color="#202327"/>
</linearGradient>
<linearGradient id="paint5_linear_620_870" x1="51.3056" y1="75.9705" x2="51.3056" y2="93.8755" gradientUnits="userSpaceOnUse">
<stop stop-color="#9BA5B1"/>
<stop offset="0.567331" stop-color="#4A515A"/>
<stop offset="1" stop-color="#202327"/>
</linearGradient>
<linearGradient id="paint6_linear_620_870" x1="65.1044" y1="67.7903" x2="65.1044" y2="86.4232" gradientUnits="userSpaceOnUse">
<stop stop-color="#9BA5B1"/>
<stop offset="0.567331" stop-color="#4A515A"/>
<stop offset="1" stop-color="#202327"/>
</linearGradient>
<linearGradient id="paint7_linear_620_870" x1="60.8227" y1="146.865" x2="60.8227" y2="150.5" gradientUnits="userSpaceOnUse">
<stop stop-color="#9BA5B1"/>
<stop offset="0.567331" stop-color="#4A515A"/>
<stop offset="1" stop-color="#202327"/>
</linearGradient>
<linearGradient id="paint8_linear_620_870" x1="87.1086" y1="137.775" x2="87.1086" y2="141.411" gradientUnits="userSpaceOnUse">
<stop stop-color="#9BA5B1"/>
<stop offset="0.567331" stop-color="#4A515A"/>
<stop offset="1" stop-color="#202327"/>
</linearGradient>
<linearGradient id="paint9_linear_620_870" x1="89.8279" y1="127.778" x2="89.8279" y2="131.413" gradientUnits="userSpaceOnUse">
<stop stop-color="#9BA5B1"/>
<stop offset="0.567331" stop-color="#4A515A"/>
<stop offset="1" stop-color="#202327"/>
</linearGradient>
<linearGradient id="paint10_linear_620_870" x1="40.2674" y1="0.5" x2="40.2674" y2="66.1067" gradientUnits="userSpaceOnUse">
<stop stop-color="#9BA5B1"/>
<stop offset="0.567331" stop-color="#4A515A"/>
<stop offset="1" stop-color="#202327"/>
</linearGradient>
</defs>
</svg>
