<svg width="140" height="161" viewBox="0 0 140 161" fill="none" xmlns="http://www.w3.org/2000/svg">
<path d="M137.915 18.5738C135.647 41.6465 70.988 126.054 17.5302 90.676L1.91504 80.6254C21.3104 39.2577 75.6639 -31.0674 137.915 18.5738Z" fill="url(#paint0_linear_620_851)"/>
<path d="M17.5302 90.676C36.5766 53.5325 87.3185 -12.8889 137.915 18.5738M17.5302 90.676C70.988 126.054 135.647 41.6465 137.915 18.5738M17.5302 90.676L1.91504 80.6254C21.3104 39.2577 75.6639 -31.0674 137.915 18.5738" stroke="#1C1C1C" stroke-width="3"/>
<path d="M117.415 112.893V65.6987" stroke="#1C1C1C" stroke-width="3" stroke-linecap="round" stroke-dasharray="4 4"/>
<path d="M79.2927 134.742L79.2927 102.405" stroke="#1C1C1C" stroke-width="3" stroke-linecap="round" stroke-dasharray="4 4"/>
<path d="M42.4795 136.49L42.4795 109.222" stroke="#1C1C1C" stroke-width="3" stroke-linecap="round" stroke-dasharray="4 4"/>
<path d="M94.0509 29.4811C97.8015 31.7555 99.6302 36.6112 99.4046 42.8019C99.1797 48.9732 96.9083 56.3499 92.6189 63.4496C88.3295 70.5494 82.8595 75.9865 77.5062 79.048C72.1363 82.1191 66.9945 82.7469 63.2439 80.4726C59.4934 78.1983 57.6642 73.3432 57.8897 67.1527C58.1146 60.9814 60.3861 53.6048 64.6754 46.5049C68.9648 39.4051 74.4349 33.9681 79.7881 30.9065C85.1581 27.8354 90.3002 27.2067 94.0509 29.4811Z" fill="#747F8D" stroke="#1C1C1C"/>
<path d="M86.7021 41.6459C88.5867 42.7889 89.5489 45.2584 89.4306 48.506C89.3129 51.7347 88.1222 55.6119 85.8622 59.3528C83.6022 63.0934 80.726 65.9477 77.9254 67.5494C75.1082 69.1606 72.4783 69.4516 70.5934 68.3089C68.7086 67.166 67.7458 64.6962 67.8641 61.4483C67.9818 58.2197 69.1721 54.3431 71.432 50.6024C73.6921 46.8616 76.5687 44.0066 79.3693 42.4049C82.1866 40.7937 84.8173 40.5029 86.7021 41.6459Z" fill="url(#paint1_linear_620_851)" stroke="#1C1C1C"/>
<path fill-rule="evenodd" clip-rule="evenodd" d="M76.3876 51.8815C77.481 49.9937 79.28 48.9939 80.4059 49.6483C81.5318 50.3028 81.5581 52.3638 80.4647 54.2517C80.2055 54.6992 79.9065 55.0967 79.5864 55.4342L80.251 58.8468L80.2624 58.9059L80.2115 58.9376L75.8645 61.6595L76.6626 56.5875C76.5882 56.5595 76.516 56.5255 76.4464 56.485C75.3205 55.8306 75.2942 53.7694 76.3876 51.8815Z" fill="#1C1C1C"/>
<path d="M49.0131 143.581C50.591 144.539 51.295 146.333 51.3417 148.226C51.3886 150.134 50.7867 152.294 49.5803 154.29C48.3737 156.286 46.7419 157.822 45.033 158.664C43.3365 159.501 41.4235 159.707 39.8454 158.75C38.2672 157.792 37.5627 155.998 37.516 154.104C37.4691 152.197 38.0713 150.036 39.2779 148.04C40.4844 146.044 42.1159 144.509 43.8247 143.666C45.5214 142.83 47.4349 142.624 49.0131 143.581Z" fill="url(#paint2_linear_620_851)" stroke="#1C1C1C" stroke-width="2"/>
<path d="M84.8146 141.891C86.3925 142.848 87.0965 144.642 87.1432 146.536C87.1901 148.443 86.5882 150.603 85.3818 152.599C84.1752 154.595 82.5434 156.131 80.8345 156.973C79.138 157.81 77.2251 158.016 75.6469 157.059C74.0687 156.102 73.3642 154.307 73.3175 152.413C73.2706 150.506 73.8729 148.346 75.0794 146.349C76.286 144.353 77.9174 142.818 79.6262 141.975C81.3229 141.139 83.2364 140.933 84.8146 141.891Z" fill="url(#paint3_linear_620_851)" stroke="#1C1C1C" stroke-width="2"/>
<path d="M123.373 119.867C124.951 120.824 125.655 122.618 125.701 124.512C125.748 126.419 125.146 128.579 123.94 130.575C122.733 132.571 121.102 134.107 119.393 134.95C117.696 135.786 115.783 135.992 114.205 135.035C112.627 134.078 111.922 132.283 111.876 130.39C111.829 128.482 112.431 126.322 113.638 124.325C114.844 122.329 116.476 120.794 118.184 119.952C119.881 119.115 121.795 118.909 123.373 119.867Z" fill="url(#paint4_linear_620_851)" stroke="#1C1C1C" stroke-width="2"/>
<defs>
<linearGradient id="paint0_linear_620_851" x1="69.915" y1="1.5" x2="69.915" y2="99.2234" gradientUnits="userSpaceOnUse">
<stop stop-color="#9BA5B1"/>
<stop offset="0.567331" stop-color="#4A515A"/>
<stop offset="1" stop-color="#202327"/>
</linearGradient>
<linearGradient id="paint1_linear_620_851" x1="86.9603" y1="41.2177" x2="70.2894" y2="68.7096" gradientUnits="userSpaceOnUse">
<stop stop-color="#9BA5B1"/>
<stop offset="0.567331" stop-color="#4A515A"/>
<stop offset="1" stop-color="#202327"/>
</linearGradient>
<linearGradient id="paint2_linear_620_851" x1="48.4954" y1="144.437" x2="40.3403" y2="157.88" gradientUnits="userSpaceOnUse">
<stop stop-color="#9BA5B1"/>
<stop offset="0.567331" stop-color="#4A515A"/>
<stop offset="1" stop-color="#202327"/>
</linearGradient>
<linearGradient id="paint3_linear_620_851" x1="84.2969" y1="142.746" x2="76.1418" y2="156.189" gradientUnits="userSpaceOnUse">
<stop stop-color="#9BA5B1"/>
<stop offset="0.567331" stop-color="#4A515A"/>
<stop offset="1" stop-color="#202327"/>
</linearGradient>
<linearGradient id="paint4_linear_620_851" x1="122.855" y1="120.722" x2="114.7" y2="134.166" gradientUnits="userSpaceOnUse">
<stop stop-color="#9BA5B1"/>
<stop offset="0.567331" stop-color="#4A515A"/>
<stop offset="1" stop-color="#202327"/>
</linearGradient>
</defs>
</svg>
