<svg width="83" height="150" viewBox="0 0 83 150" fill="none" xmlns="http://www.w3.org/2000/svg">
<path d="M52.2793 22.6619L46.8897 21.5828L6.986 43.7065V141.913L11.1107 144.801L11.3183 46.4043L52.2793 22.6619Z" fill="url(#paint0_linear_620_865)"/>
<path d="M52.2793 22.6619L52.3775 22.1716L52.53 23.0945L52.2793 22.6619ZM46.8897 21.5828L46.6472 21.1455L46.8078 21.0564L46.9879 21.0925L46.8897 21.5828ZM6.986 43.7065H6.486V43.412L6.74356 43.2692L6.986 43.7065ZM6.986 141.913L6.6992 142.322L6.486 142.173V141.913H6.986ZM11.1107 144.801L11.6107 144.802L11.6087 145.76L10.8239 145.211L11.1107 144.801ZM52.2793 22.6619L52.1811 23.1522L46.7915 22.073L46.8897 21.5828L46.9879 21.0925L52.3775 22.1716L52.2793 22.6619ZM46.8897 21.5828L47.1321 22.0201L7.22845 44.1438L6.986 43.7065L6.74356 43.2692L46.6472 21.1455L46.8897 21.5828ZM6.986 141.913L7.27281 141.503L11.3975 144.392L11.1107 144.801L10.8239 145.211L6.6992 142.322L6.986 141.913ZM11.3183 46.4043L11.0675 45.9717L52.0286 22.2293L52.2793 22.6619L52.53 23.0945L11.569 46.8369L11.3183 46.4043ZM11.1107 144.801L10.6107 144.8L10.8183 46.4033L11.3183 46.4043L11.8183 46.4054L11.6107 144.802L11.1107 144.801ZM6.986 43.7065H7.486V141.913H6.986H6.486V43.7065H6.986ZM11.3183 46.4043L11.054 46.8288L6.7217 44.1309L6.986 43.7065L7.25031 43.282L11.5826 45.9799L11.3183 46.4043Z" fill="#1C1C1C"/>
<path d="M76.0139 106.674L11.3516 144.222V45.9719L51.8347 22.5081L76.0139 36.4836V106.674Z" fill="url(#paint1_linear_620_865)" stroke="#1C1C1C" stroke-linejoin="bevel"/>
<path d="M67.9731 53.5266L20.8751 80.8755M67.9731 58.7257L20.8751 86.0746M67.9731 63.9248L20.8751 91.2738M67.9731 69.7016L20.8751 97.0506M67.9731 74.3231L20.8751 101.672M67.9731 79.5222L20.8751 106.871M67.9731 85.299L20.8751 112.648M67.9731 89.9204L20.8751 117.269M67.9731 95.1195L20.8751 122.468M67.9731 100.319L32.9368 120.664M45.7459 41.1335L20.8751 55.5755V60.197L45.7459 45.755V41.1335ZM34.6599 56.9926V61.697L20.8751 69.7015V64.9971L27.7675 60.9949L34.6599 56.9926Z" stroke="#1C1C1C"/>
<defs>
<linearGradient id="paint0_linear_620_865" x1="29.6327" y1="21.5828" x2="29.6327" y2="144.801" gradientUnits="userSpaceOnUse">
<stop stop-color="#9BA5B1"/>
<stop offset="0.567331" stop-color="#4A515A"/>
<stop offset="1" stop-color="#202327"/>
</linearGradient>
<linearGradient id="paint1_linear_620_865" x1="43.6827" y1="22.5081" x2="43.6827" y2="144.222" gradientUnits="userSpaceOnUse">
<stop stop-color="#9BA5B1"/>
<stop offset="0.567331" stop-color="#4A515A"/>
<stop offset="1" stop-color="#202327"/>
</linearGradient>
</defs>
</svg>
