<svg width="134" height="153" viewBox="0 0 134 153" fill="none" xmlns="http://www.w3.org/2000/svg">
<path d="M110.43 64.6746V113.832L66.9161 138.875L23.4023 113.832V64.6746L66.9161 39.6321L110.43 64.6746Z" fill="url(#paint0_linear_620_862)"/>
<path d="M110.43 64.6746V113.832L66.9161 138.875M110.43 64.6746L66.9161 39.6321L23.4023 64.6746M110.43 64.6746L66.9161 89.7172M23.4023 64.6746V113.832L66.9161 138.875M23.4023 64.6746L66.9161 89.7172M66.9161 138.875V89.7172" stroke="#1C1C1C" stroke-width="2"/>
<path d="M66.9998 77.3978L1 39.2763M66.9998 77.3978V151.155M66.9998 77.3978L133 39.2763M133 39.2763V113.033L66.9998 151.155M133 39.2763L66.9998 1.15479L1 39.2763M66.9998 151.155L1 113.033V39.2763" stroke="#1C1C1C" stroke-width="2" stroke-linecap="round" stroke-dasharray="6 6"/>
<defs>
<linearGradient id="paint0_linear_620_862" x1="66.9161" y1="39.6321" x2="66.9161" y2="138.875" gradientUnits="userSpaceOnUse">
<stop stop-color="#9BA5B1"/>
<stop offset="0.567331" stop-color="#4A515A"/>
<stop offset="1" stop-color="#202327"/>
</linearGradient>
</defs>
</svg>
