<svg preserveAspectRatio="none" width="100%" height="100%" overflow="visible" style="display: block;" viewBox="0 0 18.0009 11.5077" fill="none" xmlns="http://www.w3.org/2000/svg">
<path id="vector" d="M18.0009 5.75388C18.0019 5.9434 17.9315 6.13342 17.789 6.28014C17.7621 6.30785 17.7336 6.33303 17.7038 6.35569L12.6157 11.2958C12.3185 11.5843 11.8437 11.5773 11.5551 11.2801C11.2666 10.983 11.2736 10.5081 11.5708 10.2196L15.4018 6.49995L0.750004 6.50003C0.335791 6.50003 1.88925e-06 6.16425 0 5.75004C-1.88923e-06 5.33582 0.335781 5.00003 0.749996 5.00003L15.3938 4.99995L11.5708 1.2881C11.2736 0.999558 11.2666 0.524736 11.5551 0.227553C11.8437 -0.0696298 12.3185 -0.0766364 12.6157 0.211903L17.7038 5.15201C17.711 5.1575 17.7181 5.16313 17.7252 5.16891C17.7723 5.20742 17.8147 5.25155 17.8512 5.30027C17.9452 5.42556 18.0009 5.58125 18.0009 5.74994L18.0009 5.75388Z" fill="var(--fill-0, white)"/>
</svg>
